#!OML:ASF H:\MichaelJackson\Top Level 1\Subject 1\Session 1\male.ASF
:FULLY-SPECIFIED
:DEGREES
187
root 4.71122 16.7964 -29.54 -0.701593 33.2673 -0.815274
lowerback 12.258 -9.1971 -6.15086
upperback -0.0985875 -12.9387 2.52181
thorax -4.91819 -6.22207 7.93959
lowerneck -6.38497 -1.61768 -5.77169
upperneck -6.50461 -1.65621 5.06486
head -0.862767 -0.72642 2.59019
rclavicle -1.78099e-014 -1.25234e-014
rhumerus -53.3948 -20.9326 -57.7227
rradius 86.707
rwrist -27.6305
rhand -41.9732 -64.2049
rfingers 7.12502
rthumb -14.8693 93.6513
lclavicle -1.78099e-014 -1.25234e-014
lhumerus -29.3482 -26.8757 95.1363
lradius 53.3422
lwrist 14.3949
lhand 16.1153 14.6612
lfingers 7.12502
lthumb 40.9004 39.6091
rfemur -72.5509 -11.2675 29.4367
rtibia 112.497
rfoot 10.5672 22.9151
rtoes -19.5821
lfemur -20.0233 24.4794 -21.1701
ltibia 35.8895
lfoot -14.9827 10.3158
ltoes -2.47261
188
root 4.69205 16.8027 -29.5119 -0.220142 33.508 -0.673745
lowerback 11.7324 -9.29658 -6.00634
upperback -0.237359 -13.0334 2.46106
thorax -4.80809 -6.27795 7.72327
lowerneck -6.44862 -1.70713 -5.89206
upperneck -6.40517 -1.76336 5.20543
head -0.811668 -0.777557 2.65662
rclavicle -2.20061e-014 -4.5969e-015
rhumerus -53.8083 -19.2826 -59.9456
rradius 87.8828
rwrist -25.0572
rhand -42.1621 -64.1771
rfingers 7.12502
rthumb -15.0513 93.61
lclavicle -2.20061e-014 -4.5969e-015
lhumerus -29.2365 -27.8264 95.7556
lradius 52.7902
lwrist 12.527
lhand 17.3143 14.794
lfingers 7.12502
lthumb 42.0254 39.3755
rfemur -70.7921 -12.0993 28.7127
rtibia 115
rfoot 11.3723 20.0728
rtoes -17.5721
lfemur -20.4831 26.6472 -21.4673
ltibia 35.7359
lfoot -14.6388 10.2553
ltoes -0.541692
189
root 4.66959 16.8432 -29.485 0.296267 33.7346 -0.396667
lowerback 11.2428 -9.36967 -5.96765
upperback -0.36097 -13.1118 2.3506
thorax -4.69304 -6.32375 7.51352
lowerneck -6.50092 -1.81865 -5.99653
upperneck -6.3551 -1.90003 5.35029
head -0.776195 -0.843687 2.7216
rclavicle 1.14795e-013 -2.57426e-014
rhumerus -54.2259 -17.5279 -62.3379
rradius 89.044
rwrist -22.2709
rhand -42.377 -63.9966
rfingers 7.12502
rthumb -15.2583 93.4138
lclavicle 1.14795e-013 -2.57426e-014
lhumerus -29.2359 -28.8404 96.3672
lradius 52.3466
lwrist 10.4299
lhand 18.5146 14.7227
lfingers 7.12502
lthumb 43.1489 38.9158
rfemur -68.594 -13.0958 27.7122
rtibia 116.946
rfoot 12.5808 17.1585
rtoes -14.7622
lfemur -20.8743 28.5777 -21.9018
ltibia 35.4961
lfoot -14.3294 9.5573
ltoes 1.09673
190
root 4.64977 16.8404 -29.4544 0.819037 33.9824 -0.0464631
lowerback 10.7904 -9.43139 -5.96498
upperback -0.462886 -13.1827 2.19441
thorax -4.57959 -6.36512 7.27954
lowerneck -6.5601 -1.95433 -6.07597
upperneck -6.33649 -2.0684 5.51665
head -0.747184 -0.925992 2.78879
rclavicle 3.47233e-015 -2.35964e-014
rhumerus -54.6309 -15.7323 -64.8814
rradius 90.1594
rwrist -19.3718
rhand -42.5276 -63.5095
rfingers 7.12502
rthumb -15.4034 92.9156
lclavicle 3.47233e-015 -2.35964e-014
lhumerus -29.34 -29.9124 96.9575
lradius 52.0158
lwrist 8.25466
lhand 19.6437 14.4254
lfingers 7.12502
lthumb 44.203 38.2321
rfemur -66.5516 -14.2211 26.5332
rtibia 118.818
rfoot 14.0717 14.2202
rtoes -11.2962
lfemur -21.3521 30.0866 -22.4092
ltibia 35.36
lfoot -14.0381 8.55773
ltoes 2.53432
191
root 4.63069 16.8362 -29.4241 1.33909 34.2596 0.359852
lowerback 10.3588 -9.49462 -5.95725
upperback -0.539952 -13.2566 1.99062
thorax -4.46341 -6.40861 6.99622
lowerneck -6.62357 -2.1063 -6.13323
upperneck -6.34082 -2.25805 5.70975
head -0.7228 -1.01929 2.86063
rclavicle 6.00345e-014 6.4605e-016
rhumerus -55.0252 -13.8904 -67.5598
rradius 91.2293
rwrist -16.4741
rhand -42.555 -62.6445
rfingers 7.12502
rthumb -15.4297 92.0486
lclavicle 6.00345e-014 6.4605e-016
lhumerus -29.5459 -30.9997 97.5233
lradius 51.7988
lwrist 6.1635
lhand 20.6651 13.9783
lfingers 7.12502
lthumb 45.1541 37.4168
rfemur -64.3689 -15.4645 25.1194
rtibia 120.322
rfoot 15.6197 11.2456
rtoes -7.27204
lfemur -21.803 31.0837 -22.955
ltibia 35.248
lfoot -13.751 7.56832
ltoes 3.71507
192
root 4.61382 16.8307 -29.3944 1.83953 34.5482 0.783592
lowerback 9.95352 -9.54385 -5.92556
upperback -0.598238 -13.3098 1.76845
thorax -4.35485 -6.44207 6.68445
lowerneck -6.6888 -2.27953 -6.16976
upperneck -6.36646 -2.4766 5.90039
head -0.702778 -1.12727 2.92724
rclavicle 1.34031e-013 -1.55052e-014
rhumerus -55.4207 -12.0255 -70.2838
rradius 92.2832
rwrist -13.7123
rhand -42.3351 -61.2185
rfingers 7.12502
rthumb -15.2179 90.6388
lclavicle 1.34031e-013 -1.55052e-014
lhumerus -29.8407 -32.0905 98.1162
lradius 51.6885
lwrist 4.32073
lhand 21.5676 13.5085
lfingers 7.12502
lthumb 45.9926 36.6061
rfemur -62.043 -16.7797 23.4946
rtibia 121.452
rfoot 16.9821 8.28987
rtoes -2.83987
lfemur -22.286 31.5851 -23.4873
ltibia 35.3537
lfoot -13.5722 6.83152
ltoes 4.60461
193
root 4.59905 16.8242 -29.3665 2.29877 34.7932 1.14284
lowerback 9.55097 -9.57492 -5.79262
upperback -0.638307 -13.326 1.54694
thorax -4.25613 -6.45916 6.31954
lowerneck -6.75623 -2.46287 -6.18825
upperneck -6.42199 -2.70879 6.08387
head -0.690845 -1.24227 2.98788
rclavicle -1.92573e-016 2.98177e-015
rhumerus -55.8073 -10.1444 -73.0236
rradius 93.356
rwrist -11.2042
rhand -41.7412 -59.0557
rfingers 7.12502
rthumb -14.6459 -88.5185
lclavicle -1.92573e-016 2.98177e-015
lhumerus -30.2004 -33.1539 98.724
lradius 51.6734
lwrist 2.86374
lhand 22.4541 13.2664
lfingers 7.12502
lthumb 46.814 36.0141
rfemur -59.6582 -18.0174 21.7582
rtibia 122.168
rfoot 18.0287 5.35716
rtoes 1.86959
lfemur -22.727 31.6286 -23.9243
ltibia 35.4847
lfoot -13.3788 6.50577
ltoes 5.2573
194
root 4.58658 16.8176 -29.3401 2.70655 34.9409 1.41678
lowerback 9.13744 -9.5725 -5.56736
upperback -0.661409 -13.2858 1.34779
thorax -4.15576 -6.45055 5.9244
lowerneck -6.81055 -2.64799 -6.20812
upperneck -6.52124 -2.94314 6.24618
head -0.694912 -1.35833 3.04204
rclavicle 3.96203e-014 -1.43125e-014
rhumerus -56.1846 -8.25549 -75.704
rradius 94.4956
rwrist -9.05765
rhand -40.6109 -56.012
rfingers 7.12502
rthumb -13.5566 -85.5507
lclavicle 3.96203e-014 -1.43125e-014
lhumerus -30.6076 -34.1581 99.3682
lradius 51.7263
lwrist 1.86641
lhand 23.2596 13.2123
lfingers 7.12502
lthumb 47.5586 35.6285
rfemur -57.2385 -19.0515 19.97
rtibia 122.45
rfoot 18.5776 2.40741
rtoes 6.76674
lfemur -23.131 31.4846 -24.2532
ltibia 35.636
lfoot -13.2032 6.47836
ltoes 5.61863
195
root 4.57656 16.8116 -29.3162 3.07206 34.9404 1.59191
lowerback 8.69806 -9.52428 -5.23967
upperback -0.674017 -13.1722 1.18156
thorax -4.05272 -6.40786 5.5016
lowerneck -6.85082 -2.82817 -6.23527
upperneck -6.6669 -3.17056 6.37352
head -0.716913 -1.47079 3.08646
rclavicle 2.0819e-013 -2.21645e-014
rhumerus -56.5268 -6.38681 -78.2575
rradius 95.7176
rwrist -7.34072
rhand -38.7812 -52.0791
rfingers 7.12502
rthumb -11.7927 -81.7271
lclavicle 2.0819e-013 -2.21645e-014
lhumerus -31.0387 -35.0831 100.054
lradius 51.8067
lwrist 1.34064
lhand 23.9516 13.4147
lfingers 7.12502
lthumb 48.1969 35.5351
rfemur -54.8656 -19.7418 18.2124
rtibia 122.289
rfoot 18.574 -0.489407
rtoes 11.6687
lfemur -23.5276 31.2851 -24.4768
ltibia 35.8102
lfoot -13.0721 6.62121
ltoes 5.89102
196
root 4.56967 16.8067 -29.2927 3.42124 34.7825 1.74428
lowerback 8.23397 -9.42407 -4.9071
upperback -0.678667 -12.9883 1.05311
thorax -3.92547 -6.33134 5.10542
lowerneck -6.88359 -2.99902 -6.28628
upperneck -6.8424 -3.38517 6.4434
head -0.751139 -1.57616 3.1165
rclavicle 1.08971e-013 -1.20265e-014
rhumerus -56.817 -4.53174 -80.598
rradius 97.0297
rwrist -6.09014
rhand -36.0963 -47.414
rfingers 7.12502
rthumb -9.20273 -77.1932
lclavicle 1.08971e-013 -1.20265e-014
lhumerus -31.4733 -35.8856 100.812
lradius 51.8575
lwrist 1.22234
lhand 24.507 13.8254
lfingers 7.12502
lthumb 48.7081 35.7009
rfemur -52.5192 -20.0793 16.4469
rtibia 121.671
rfoot 17.9664 -3.25679
rtoes 16.4152
lfemur -23.8863 31.1624 -24.6602
ltibia 35.9927
lfoot -13.0055 6.82383
ltoes 6.10313
197
root 4.56361 16.8015 -29.2704 3.74704 34.45 1.83646
lowerback 7.73743 -9.2724 -4.5365
upperback -0.675758 -12.7324 0.954172
thorax -3.77793 -6.22023 4.70978
lowerneck -6.91178 -3.15586 -6.34027
upperneck -7.03265 -3.58205 6.46892
head -0.792827 -1.67242 3.13265
rclavicle -1.26353e-013 1.23246e-014
rhumerus -57.0308 -2.70732 -82.723
rradius 98.4143
rwrist -5.25995
rhand -32.4671 -42.3656
rfingers 7.12502
rthumb -5.69968 -72.2689
lclavicle -1.26353e-013 1.23246e-014
lhumerus -31.909 -36.5538 101.6
lradius 51.8571
lwrist 1.46314
lhand 24.9406 14.3882
lfingers 7.12502
lthumb 49.1066 36.0677
rfemur -50.2904 -20.0391 14.7965
rtibia 120.608
rfoot 16.8689 -5.8557
rtoes 21.0898
lfemur -24.244 31.1739 -24.7831
ltibia 36.1837
lfoot -12.9905 7.03752
ltoes 6.31618
